# xmcd
#
# Track frame offsets: 
#        150
#        18067
#        30334
#        42756
#        54925
#        68450
#        83172
#        97881
#        110818
#        136510
#        143980
#        157169
#
# Disc length: 2234 seconds
#
# Revision: 3
# Processed by: cddbd v1.4PL0 Copyright (c) Steve Scherf et al.
# Submitted via: ExactAudioCopy v0.90b4
#
DISCID=8908b80c
DTITLE=FLEETWOOD MAC - The Pious Bird Of Good Omen
DYEAR=1969
DGENRE=Blues
TTITLE0=Need your love so bad
TTITLE1=Comin' home
TTITLE2=Rambling pony
TTITLE3=The big boat
TTITLE4=I believe my time ain't long
TTITLE5=The sun is shining
TTITLE6=Albatross
TTITLE7=Black magic woman
TTITLE8=Just the blues
TTITLE9=Jigsaw puzzle blues
TTITLE10=Looking for somebody
TTITLE11=Stop messin' round
EXTD=(p) 1969 Sony Music Entertainment (UK) Ltd.\nPeter Green (vocal, 
EXTD=guitar, harmonica]\nJeremy Spencer (vocal, slide-guitar, piano]\n
EXTD=Danny Kirwan (guitar]\nJohn McVie (bass]\nMick Fleetwood (drums]\n
EXTD=Produced by Mike Vernon\n
EXTT0=
EXTT1=
EXTT2=
EXTT3=
EXTT4=
EXTT5=
EXTT6=
EXTT7=
EXTT8=
EXTT9=
EXTT10=
EXTT11=
PLAYORDER=
